<?xml version="1.0" encoding="UTF-8" standalone="no"?>
<svg
   xmlns:dc="http://purl.org/dc/elements/1.1/"
   xmlns:cc="http://creativecommons.org/ns#"
   xmlns:rdf="http://www.w3.org/1999/02/22-rdf-syntax-ns#"
   xmlns:svg="http://www.w3.org/2000/svg"
   xmlns="http://www.w3.org/2000/svg"
   xmlns:sodipodi="http://sodipodi.sourceforge.net/DTD/sodipodi-0.dtd"
   xmlns:inkscape="http://www.inkscape.org/namespaces/inkscape"
   version="1.1"
   id="svg2"
   xml:space="preserve"
   width="235.26532"
   height="199.312"
   viewBox="0 0 235.26532 199.31199"
   sodipodi:docname="logo.svg"
   inkscape:version="1.0.2 (e86c870879, 2021-01-15)"><metadata
     id="metadata8"><rdf:RDF><cc:Work
         rdf:about=""><dc:format>image/svg+xml</dc:format><dc:type
           rdf:resource="http://purl.org/dc/dcmitype/StillImage" /><dc:title></dc:title></cc:Work></rdf:RDF></metadata><defs
     id="defs6"><clipPath
       clipPathUnits="userSpaceOnUse"
       id="clipPath20"><path
         d="M 0,841.89 H 1190.55 V 0 H 0 Z"
         id="path18" /></clipPath></defs><sodipodi:namedview
     pagecolor="#ffffff"
     bordercolor="#666666"
     borderopacity="1"
     objecttolerance="10"
     gridtolerance="10"
     guidetolerance="10"
     inkscape:pageopacity="0"
     inkscape:pageshadow="2"
     inkscape:window-width="1502"
     inkscape:window-height="1111"
     id="namedview4"
     showgrid="false"
     inkscape:zoom="0.20756868"
     inkscape:cx="252.22048"
     inkscape:cy="223.99307"
     inkscape:window-x="26"
     inkscape:window-y="23"
     inkscape:window-maximized="0"
     inkscape:current-layer="g10"
     inkscape:document-rotation="0"
     fit-margin-top="0"
     fit-margin-left="0"
     fit-margin-right="0"
     fit-margin-bottom="0" /><g
     id="g10"
     inkscape:groupmode="layer"
     inkscape:label="logo Zynthian B-N"
     transform="matrix(1.3333333,0,0,-1.3333333,-676.1617,670.57902)"><g
       id="g22"
       transform="translate(657.97529,358.54528)"><path
         d="m 0,0 h -125.259 c -11.325,0 -20.5,9.174 -20.5,20.5 v 53.339 h 20.276 c 3.391,0 3.518,-1.882 3.518,-4.771 V 54.626 c 0,-14.442 20.216,-16.2 20.216,0.126 v 33.781 c 0,11.051 11.805,10.047 11.805,0 V 35.916 c 0,-16.327 21.601,-17.331 21.601,0 v 68.942 c 0,5.65 5.714,5.902 5.714,5.902 0,0 5.713,-0.252 5.713,-5.902 V 35.916 c 0,-17.331 21.6,-16.327 21.6,0 v 52.617 c 0,10.047 11.804,11.051 11.804,0 V 54.752 c 0,-16.326 20.219,-14.568 20.219,-0.126 v 14.442 c 0,2.889 0.125,4.771 3.515,4.771 H 20.5 V 20.5 C 20.5,9.174 11.326,0 0,0 M -125.259,139.294 H 0 c 11.326,0 20.5,-9.179 20.5,-20.504 V 79.114 H 1.855 c -8.539,0 -10.423,-3.014 -10.423,-11.93 V 54.5 c 0,-7.786 -9.796,-8.664 -9.796,0 v 34.159 c 0,17.832 -22.352,17.204 -22.352,0 0,-11.679 0.251,-44.958 0.251,-52.493 0,-9.669 -11.176,-10.423 -11.176,-0.125 v 68.315 c 0,7.472 -4.961,11.679 -10.988,11.646 -6.029,0.033 -10.99,-4.174 -10.99,-11.646 V 36.041 c 0,-10.298 -11.175,-9.544 -11.175,0.125 0,7.535 0.25,40.814 0.25,52.493 0,17.204 -22.353,17.832 -22.353,0 V 54.5 c 0,-8.664 -9.795,-7.786 -9.795,0 v 12.684 c 0,8.916 -1.884,11.93 -10.423,11.93 h -18.644 v 39.676 c 0,11.325 9.175,20.504 20.5,20.504 m 125.792,5.095 h -126.325 c -13.837,0 -25.062,-11.22 -25.062,-25.061 V 19.967 c 0,-13.842 11.225,-25.062 25.062,-25.062 H 0.533 c 13.839,0 25.062,11.22 25.062,25.062 v 99.361 c 0,13.841 -11.223,25.061 -25.062,25.061"
         style="fill:#ffffff;fill-opacity:1;fill-rule:nonzero;stroke:none"
         id="path24" /></g></g></svg>
